<svg width="36" height="36" viewBox="0 0 36 36" fill="none" xmlns="http://www.w3.org/2000/svg" preserveAspectRatio="none">
<path fill-rule="evenodd" clip-rule="evenodd" d="M17.2328 34C26.3892 34 34 26.3887 34 17.2328C34 7.61128 26.3887 0 17.2328 0C7.61128 0 0 7.61128 0 17.2328C0 26.3892 7.61128 34 17.2328 34Z" transform="translate(1 1)" fill="#3F9FFF"/>
<path fill-rule="evenodd" clip-rule="evenodd" d="M4.72222 4.72222H0.472222C0.211083 4.72222 0 4.93567 0 5.19917V6.13417C0 6.40192 0.211556 6.61111 0.472222 6.61111H4.72222V10.8611C4.72222 11.1222 4.93567 11.3333 5.19917 11.3333H6.13417C6.40192 11.3333 6.61111 11.1218 6.61111 10.8611V6.61111H10.8611C11.1222 6.61111 11.3333 6.39767 11.3333 6.13417V5.19917C11.3333 4.93142 11.1218 4.72222 10.8611 4.72222H6.61111V0.472222C6.61111 0.211083 6.39767 0 6.13417 0H5.19917C4.93142 0 4.72222 0.211556 4.72222 0.472222V4.72222Z" transform="translate(12.3333 12.3333)" fill="white"/>
</svg>
