<svg width="64" height="40" viewBox="0 0 64 40" fill="none" xmlns="http://www.w3.org/2000/svg" preserveAspectRatio="none">
    <g filter="url(#filter0_f)">
        <path
            d="M25.4 9.80392C25.4 3.72549 29.8 0.0980392 35.5 0.0980392C40.6 0.0980392 44 2.64706 44 6.17647C44 9.5098 41.1 11.6667 37.9 11.6667C36.1 11.6667 34.8 11.3725 33.9 10.6863C33.6 10.3922 33.4 10.4902 33.4 10.7843C33.4 12.0588 33.9 13.0392 34.7 13.9216C35.4 14.6078 36.7 15.098 37.9 15.098C39.2 15.098 40.3 14.8039 41.3 14.3137C42.3 13.8235 43.1 14.0196 43.6 14.8039C44.2 15.6863 43.4 16.8627 42.7 17.6471C41.4 19.0196 38.9 20 35.7 20C29.2 19.8039 25.4 15.4902 25.4 9.80392ZM12.1 13.8235C12.7 13.8235 13.1 14.1176 13.5 14.8039L15.3 17.6471C16 18.7255 16.6 19.5098 17.9 19.5098C19.2 19.5098 19.9 19.0196 20.5 17.549C21.3 15.7843 22.2 13.5294 22.9 10.5882C23.8 7.2549 24.2 5.29412 24.2 3.62745C24.2 1.96078 23.7 0.980392 21.8 0.686274C19.3 0.196078 15.8 2.33744e-08 12.1 2.33744e-08C8.4 2.33744e-08 4.9 0.196078 2.4 0.588235C0.5 0.980392 0 1.96078 0 3.62745C0 5.29412 0.4 7.2549 1.2 10.5882C2 13.5294 2.8 15.6863 3.6 17.549C4.3 19.0196 4.9 19.5098 6.2 19.5098C7.5 19.5098 8.1 18.7255 8.8 17.6471L10.6 14.8039C11.1 14.2157 11.5 13.8235 12.1 13.8235Z"
            transform="translate(10 10)"
            fill="#17181A"
            fill-opacity="0.11"/>
    </g>
    <path
        d="M25.4 9.80392C25.4 3.72549 29.8 0.0980392 35.5 0.0980392C40.6 0.0980392 44 2.64706 44 6.17647C44 9.5098 41.1 11.6667 37.9 11.6667C36.1 11.6667 34.8 11.3725 33.9 10.6863C33.6 10.3922 33.4 10.4902 33.4 10.7843C33.4 12.0588 33.9 13.0392 34.7 13.9216C35.4 14.6078 36.7 15.098 37.9 15.098C39.2 15.098 40.3 14.8039 41.3 14.3137C42.3 13.8235 43.1 14.0196 43.6 14.8039C44.2 15.6863 43.4 16.8627 42.7 17.6471C41.4 19.0196 38.9 20 35.7 20C29.2 19.8039 25.4 15.4902 25.4 9.80392ZM12.1 13.8235C12.7 13.8235 13.1 14.1176 13.5 14.8039L15.3 17.6471C16 18.7255 16.6 19.5098 17.9 19.5098C19.2 19.5098 19.9 19.0196 20.5 17.549C21.3 15.7843 22.2 13.5294 22.9 10.5882C23.8 7.2549 24.2 5.29412 24.2 3.62745C24.2 1.96078 23.7 0.980392 21.8 0.686274C19.3 0.196078 15.8 2.33744e-08 12.1 2.33744e-08C8.4 2.33744e-08 4.9 0.196078 2.4 0.588235C0.5 0.980392 0 1.96078 0 3.62745C0 5.29412 0.4 7.2549 1.2 10.5882C2 13.5294 2.8 15.6863 3.6 17.549C4.3 19.0196 4.9 19.5098 6.2 19.5098C7.5 19.5098 8.1 18.7255 8.8 17.6471L10.6 14.8039C11.1 14.2157 11.5 13.8235 12.1 13.8235Z"
        transform="translate(10 10)"
        fill="white"/>
    <defs>
        <filter id="filter0_f" x="6" y="6" width="52" height="28" filterUnits="userSpaceOnUse" color-interpolation-filters="sRGB">
            <feFlood flood-opacity="0" result="BackgroundImageFix"/>
            <feBlend mode="normal" in="SourceGraphic" in2="BackgroundImageFix" result="shape"/>
            <feGaussianBlur stdDeviation="2" result="effect1_foregroundBlur"/>
        </filter>
    </defs>
</svg>
